<mxfile host="app.diagrams.net" modified="2022-02-16T16:52:53.110Z" agent="5.0 (Macintosh; Intel Mac OS X 10_15_7) AppleWebKit/537.36 (KHTML, like Gecko) Chrome/98.0.4758.80 Safari/537.36" etag="jDRTuJFvM7QT5yUseQw9" version="16.5.6" type="github">
  <diagram name="Page-1" id="bd83a815-5ea8-2e97-e5ec-87c9f400f2fa">
    <mxGraphModel dx="3179.5" dy="794" grid="1" gridSize="10" guides="1" tooltips="1" connect="1" arrows="1" fold="1" page="1" pageScale="1.5" pageWidth="1169" pageHeight="826" background="none" math="0" shadow="0">
      <root>
        <mxCell id="0" style=";html=1;" />
        <mxCell id="1" style=";html=1;" parent="0" />
        <mxCell id="1516e18e63f93b96-1" value="&lt;table border=&quot;1&quot; width=&quot;100%&quot; cellpadding=&quot;4&quot; style=&quot;width: 100% ; height: 100% ; border-collapse: collapse&quot;&gt;&lt;tbody&gt;&lt;tr style=&quot;background-color: #a7c942 ; color: #ffffff ; border: 1px solid #98bf21&quot;&gt;&lt;th&gt;Tasks&lt;/th&gt;&lt;th&gt;Redis&lt;/th&gt;&lt;th&gt;Memcache&lt;/th&gt;&lt;th&gt;&lt;br&gt;&lt;/th&gt;&lt;th&gt;&lt;br&gt;&lt;/th&gt;&lt;th&gt;&lt;/th&gt;&lt;/tr&gt;&lt;tr style=&quot;border: 1px solid #98bf21&quot;&gt;&lt;td style=&quot;background-color: #a7c942 ; color: #ffffff ; border: 1px solid #98bf21&quot;&gt;Task 1&lt;/td&gt;&lt;td&gt;&lt;/td&gt;&lt;td&gt;&lt;/td&gt;&lt;td&gt;&lt;br&gt;&lt;/td&gt;&lt;td&gt;&lt;br&gt;&lt;/td&gt;&lt;td&gt;&lt;br&gt;&lt;/td&gt;&lt;/tr&gt;&lt;tr style=&quot;background-color: #eaf2d3 ; border: 1px solid #98bf21&quot;&gt;&lt;td style=&quot;background-color: #a7c942 ; color: #ffffff ; border: 1px solid #98bf21&quot;&gt;Task 2&lt;/td&gt;&lt;td&gt;&lt;/td&gt;&lt;td&gt;&lt;/td&gt;&lt;td&gt;&lt;br&gt;&lt;/td&gt;&lt;td&gt;&lt;br&gt;&lt;/td&gt;&lt;td&gt;&lt;br&gt;&lt;/td&gt;&lt;/tr&gt;&lt;tr style=&quot;border: 1px solid #98bf21&quot;&gt;&lt;td style=&quot;background-color: #a7c942 ; color: #ffffff ; border: 1px solid #98bf21&quot;&gt;Task 3&lt;/td&gt;&lt;td&gt;&lt;/td&gt;&lt;td&gt;&lt;/td&gt;&lt;td&gt;&lt;br&gt;&lt;/td&gt;&lt;td&gt;&lt;br&gt;&lt;/td&gt;&lt;td&gt;&lt;br&gt;&lt;/td&gt;&lt;/tr&gt;&lt;tr style=&quot;background-color: #eaf2d3 ; border: 1px solid #98bf21&quot;&gt;&lt;td style=&quot;background-color: #a7c942 ; color: #ffffff ; border: 1px solid #98bf21&quot;&gt;Task 4&lt;/td&gt;&lt;td&gt;&lt;/td&gt;&lt;td&gt;&lt;/td&gt;&lt;td&gt;&lt;br&gt;&lt;/td&gt;&lt;td&gt;&lt;br&gt;&lt;/td&gt;&lt;td&gt;&lt;br&gt;&lt;/td&gt;&lt;/tr&gt;&lt;tr style=&quot;border: 1px solid #98bf21&quot;&gt;&lt;td style=&quot;background-color: #a7c942 ; color: #ffffff ; border: 1px solid #98bf21&quot;&gt;Task 5&lt;br&gt;&lt;/td&gt;&lt;td&gt;&lt;br&gt;&lt;/td&gt;&lt;td&gt;&lt;br&gt;&lt;/td&gt;&lt;td&gt;&lt;br&gt;&lt;/td&gt;&lt;td&gt;&lt;br&gt;&lt;/td&gt;&lt;td&gt;&lt;br&gt;&lt;/td&gt;&lt;/tr&gt;&lt;tr style=&quot;background-color: #eaf2d3 ; border: 1px solid #98bf21&quot;&gt;&lt;td style=&quot;background-color: #a7c942 ; color: #ffffff ; border: 1px solid #98bf21&quot;&gt;Task 6&lt;br&gt;&lt;/td&gt;&lt;td&gt;&lt;br&gt;&lt;/td&gt;&lt;td&gt;&lt;br&gt;&lt;/td&gt;&lt;td&gt;&lt;br&gt;&lt;/td&gt;&lt;td&gt;&lt;br&gt;&lt;/td&gt;&lt;td&gt;&lt;br&gt;&lt;/td&gt;&lt;/tr&gt;&lt;tr style=&quot;border: 1px solid #98bf21&quot;&gt;&lt;td style=&quot;background-color: #a7c942 ; color: #ffffff ; border: 1px solid #98bf21&quot;&gt;Task 7&lt;br&gt;&lt;/td&gt;&lt;td&gt;&lt;br&gt;&lt;/td&gt;&lt;td&gt;&lt;br&gt;&lt;/td&gt;&lt;td&gt;&lt;br&gt;&lt;/td&gt;&lt;td&gt;&lt;br&gt;&lt;/td&gt;&lt;td&gt;&lt;br&gt;&lt;/td&gt;&lt;/tr&gt;&lt;tr style=&quot;background-color: #eaf2d3 ; border: 1px solid #98bf21&quot;&gt;&lt;td style=&quot;background-color: #a7c942 ; color: #ffffff ; border: 1px solid #98bf21&quot;&gt;Task 8&lt;br&gt;&lt;/td&gt;&lt;td&gt;&lt;br&gt;&lt;/td&gt;&lt;td&gt;&lt;br&gt;&lt;/td&gt;&lt;td&gt;&lt;br&gt;&lt;/td&gt;&lt;td&gt;&lt;br&gt;&lt;/td&gt;&lt;td&gt;&lt;br&gt;&lt;/td&gt;&lt;/tr&gt;&lt;tr style=&quot;border: 1px solid #98bf21&quot;&gt;&lt;td style=&quot;background-color: #a7c942 ; color: #ffffff ; border: 1px solid #98bf21&quot;&gt;Task 9&lt;br&gt;&lt;/td&gt;&lt;td&gt;&lt;br&gt;&lt;/td&gt;&lt;td&gt;&lt;br&gt;&lt;/td&gt;&lt;td&gt;&lt;br&gt;&lt;/td&gt;&lt;td&gt;&lt;br&gt;&lt;/td&gt;&lt;td&gt;&lt;br&gt;&lt;/td&gt;&lt;/tr&gt;&lt;tr style=&quot;background-color: #eaf2d3 ; border: 1px solid #98bf21&quot;&gt;&lt;td style=&quot;background-color: #a7c942 ; color: #ffffff ; border: 1px solid #98bf21&quot;&gt;Task 10&lt;br&gt;&lt;/td&gt;&lt;td&gt;&lt;br&gt;&lt;/td&gt;&lt;td&gt;&lt;br&gt;&lt;/td&gt;&lt;td&gt;&lt;br&gt;&lt;/td&gt;&lt;td&gt;&lt;br&gt;&lt;/td&gt;&lt;td&gt;&lt;br&gt;&lt;/td&gt;&lt;/tr&gt;&lt;/tbody&gt;&lt;/table&gt;" style="text;html=1;strokeColor=#b85450;fillColor=#f8cecc;overflow=fill;rounded=0;shadow=1;fontSize=14;align=center;" parent="1" vertex="1">
          <mxGeometry x="-1150" y="100" width="1090" height="660" as="geometry" />
        </mxCell>
      </root>
    </mxGraphModel>
  </diagram>
</mxfile>
